<svg width="16" height="16" viewBox="0 0 16 16" fill="none" xmlns="http://www.w3.org/2000/svg">
<path d="M13.8868 5.34L9.52014 1.84667C8.6668 1.16667 7.33347 1.16 6.4868 1.84L2.12014 5.34C1.49347 5.84 1.11347 6.84 1.2468 7.62667L2.0868 12.6533C2.28014 13.78 3.3268 14.6667 4.4668 14.6667H11.5335C12.6601 14.6667 13.7268 13.76 13.9201 12.6467L14.7601 7.62C14.8801 6.84 14.5001 5.84 13.8868 5.34ZM8.50014 12C8.50014 12.2733 8.27347 12.5 8.00014 12.5C7.7268 12.5 7.50014 12.2733 7.50014 12V10C7.50014 9.72667 7.7268 9.5 8.00014 9.5C8.27347 9.5 8.50014 9.72667 8.50014 10V12Z" fill="white"/>
</svg>
